<?xml version="1.0" encoding="UTF-8"?>
<svg width="300" height="60" viewBox="0 0 300 60" fill="none" xmlns="http://www.w3.org/2000/svg">
  <rect width="2" height="50" x="10" y="5" fill="black"/>
  <rect width="1" height="50" x="14" y="5" fill="black"/>
  <rect width="3" height="50" x="17" y="5" fill="black"/>
  <rect width="1" height="50" x="22" y="5" fill="black"/>
  <rect width="2" height="50" x="25" y="5" fill="black"/>
  <rect width="3" height="50" x="29" y="5" fill="black"/>
  <rect width="1" height="50" x="34" y="5" fill="black"/>
  <rect width="2" height="50" x="37" y="5" fill="black"/>
  <rect width="1" height="50" x="41" y="5" fill="black"/>
  <rect width="3" height="50" x="44" y="5" fill="black"/>
  <rect width="2" height="50" x="49" y="5" fill="black"/>
  <rect width="1" height="50" x="53" y="5" fill="black"/>
  <rect width="3" height="50" x="56" y="5" fill="black"/>
  <rect width="1" height="50" x="61" y="5" fill="black"/>
  <rect width="2" height="50" x="64" y="5" fill="black"/>
  <rect width="3" height="50" x="68" y="5" fill="black"/>
  <rect width="1" height="50" x="73" y="5" fill="black"/>
  <rect width="2" height="50" x="76" y="5" fill="black"/>
  <rect width="1" height="50" x="80" y="5" fill="black"/>
  <rect width="3" height="50" x="83" y="5" fill="black"/>
  <rect width="2" height="50" x="88" y="5" fill="black"/>
  <rect width="1" height="50" x="92" y="5" fill="black"/>
  <rect width="3" height="50" x="95" y="5" fill="black"/>
  <rect width="1" height="50" x="100" y="5" fill="black"/>
  <rect width="2" height="50" x="103" y="5" fill="black"/>
  <rect width="3" height="50" x="107" y="5" fill="black"/>
  <rect width="1" height="50" x="112" y="5" fill="black"/>
  <rect width="2" height="50" x="115" y="5" fill="black"/>
  <rect width="1" height="50" x="119" y="5" fill="black"/>
  <rect width="3" height="50" x="122" y="5" fill="black"/>
  <rect width="2" height="50" x="127" y="5" fill="black"/>
  <rect width="1" height="50" x="131" y="5" fill="black"/>
  <rect width="3" height="50" x="134" y="5" fill="black"/>
  <rect width="1" height="50" x="139" y="5" fill="black"/>
  <rect width="2" height="50" x="142" y="5" fill="black"/>
  <rect width="3" height="50" x="146" y="5" fill="black"/>
  <rect width="1" height="50" x="151" y="5" fill="black"/>
  <rect width="2" height="50" x="154" y="5" fill="black"/>
  <rect width="1" height="50" x="158" y="5" fill="black"/>
  <rect width="3" height="50" x="161" y="5" fill="black"/>
  <rect width="2" height="50" x="166" y="5" fill="black"/>
  <rect width="1" height="50" x="170" y="5" fill="black"/>
  <rect width="3" height="50" x="173" y="5" fill="black"/>
  <rect width="1" height="50" x="178" y="5" fill="black"/>
  <rect width="2" height="50" x="181" y="5" fill="black"/>
  <rect width="3" height="50" x="185" y="5" fill="black"/>
  <rect width="1" height="50" x="190" y="5" fill="black"/>
  <rect width="2" height="50" x="193" y="5" fill="black"/>
  <rect width="1" height="50" x="197" y="5" fill="black"/>
  <rect width="3" height="50" x="200" y="5" fill="black"/>
  <rect width="2" height="50" x="205" y="5" fill="black"/>
  <rect width="1" height="50" x="209" y="5" fill="black"/>
  <rect width="3" height="50" x="212" y="5" fill="black"/>
  <rect width="1" height="50" x="217" y="5" fill="black"/>
  <rect width="2" height="50" x="220" y="5" fill="black"/>
  <rect width="3" height="50" x="224" y="5" fill="black"/>
  <rect width="1" height="50" x="229" y="5" fill="black"/>
  <rect width="2" height="50" x="232" y="5" fill="black"/>
  <rect width="1" height="50" x="236" y="5" fill="black"/>
  <rect width="3" height="50" x="239" y="5" fill="black"/>
  <rect width="2" height="50" x="244" y="5" fill="black"/>
  <rect width="1" height="50" x="248" y="5" fill="black"/>
  <rect width="3" height="50" x="251" y="5" fill="black"/>
  <rect width="1" height="50" x="256" y="5" fill="black"/>
  <rect width="2" height="50" x="259" y="5" fill="black"/>
  <rect width="3" height="50" x="263" y="5" fill="black"/>
  <rect width="1" height="50" x="268" y="5" fill="black"/>
  <rect width="2" height="50" x="271" y="5" fill="black"/>
  <rect width="1" height="50" x="275" y="5" fill="black"/>
  <rect width="3" height="50" x="278" y="5" fill="black"/>
  <rect width="2" height="50" x="283" y="5" fill="black"/>
  <rect width="1" height="50" x="287" y="5" fill="black"/>
</svg>