<?xml version="1.0" encoding="UTF-8"?>
<svg width="512" height="512" viewBox="0 0 512 512" fill="none" xmlns="http://www.w3.org/2000/svg">
  <rect width="512" height="512" rx="100" fill="#1A73E8"/>
  <path d="M394 362H118C107.507 362 99 353.493 99 343V183C99 172.507 107.507 164 118 164H394C404.493 164 413 172.507 413 183V343C413 353.493 404.493 362 394 362Z" fill="white"/>
  <path d="M118 164H394V236H118V164Z" fill="#FBBC05"/>
  <path d="M142 284C150.837 284 158 276.837 158 268C158 259.163 150.837 252 142 252C133.163 252 126 259.163 126 268C126 276.837 133.163 284 142 284Z" fill="#4285F4"/>
  <path d="M182 284C190.837 284 198 276.837 198 268C198 259.163 190.837 252 182 252C173.163 252 166 259.163 166 268C166 276.837 173.163 284 182 284Z" fill="#4285F4"/>
  <path d="M222 284C230.837 284 238 276.837 238 268C238 259.163 230.837 252 222 252C213.163 252 206 259.163 206 268C206 276.837 213.163 284 222 284Z" fill="#4285F4"/>
  <path d="M331 284C339.837 284 347 276.837 347 268C347 259.163 339.837 252 331 252C322.163 252 315 259.163 315 268C315 276.837 322.163 284 331 284Z" fill="#4285F4"/>
  <path d="M370 284C378.837 284 386 276.837 386 268C386 259.163 378.837 252 370 252C361.163 252 354 259.163 354 268C354 276.837 361.163 284 370 284Z" fill="#4285F4"/>
  <path d="M99 324H413V343C413 353.493 404.493 362 394 362H118C107.507 362 99 353.493 99 343V324Z" fill="#34A853"/>
  <path d="M142 386L118 362L142 338L166 362L142 386Z" fill="#EA4335"/>
  <path d="M370 386L346 362L370 338L394 362L370 386Z" fill="#EA4335"/>
  <path d="M90 384H166L142 408H90V384Z" fill="#1A73E8"/>
  <path d="M422 384H346L370 408H422V384Z" fill="#1A73E8"/>
  <path d="M256 140C266.493 140 275 131.493 275 121C275 110.507 266.493 102 256 102C245.507 102 237 110.507 237 121C237 131.493 245.507 140 256 140Z" fill="#FBBC05"/>
  <path d="M256 102V121L275 121" stroke="#FBBC05" stroke-width="10" stroke-linecap="round"/>
  <path d="M256 164V140" stroke="#FBBC05" stroke-width="10" stroke-linecap="round"/>
</svg>